<mxfile host="app.diagrams.net" modified="2023-08-17T03:17:37.040Z" agent="Mozilla/5.0 (Macintosh; Intel Mac OS X 10_15_7) AppleWebKit/605.1.15 (KHTML, like Gecko) Version/16.4 Safari/605.1.15" version="21.6.8" etag="C0T-fQLFKZyQijilAf6q" type="github">
  <diagram name="Page-1" id="Vfz2VB8NqlzTxQiamxQz">
    <mxGraphModel>
      <root>
        <mxCell id="0" />
        <mxCell id="1" parent="0" />
      </root>
    </mxGraphModel>
  </diagram>
</mxfile>
